<svg xmlns="http://www.w3.org/2000/svg" height="20" width="20"><path fill="#9ca3af" d="M10 9.479q-.917 0-1.542-.625t-.625-1.542q0-.895.625-1.531.625-.635 1.542-.635t1.542.635q.625.636.625 1.531 0 .917-.625 1.542T10 9.479Zm-5.167 5.375v-1.042q0-.291.198-.572.198-.282.552-.511 1.042-.583 2.167-.896 1.125-.312 2.25-.312t2.25.312q1.125.313 2.167.896.354.209.552.5.198.292.198.583v1.042Zm.667-.666h9v-.376q0-.166-.125-.312t-.354-.25q-.875-.521-1.906-.792-1.032-.27-2.115-.27-1.083 0-2.115.27-1.031.271-1.906.792-.229.146-.354.281-.125.136-.125.281ZM10 8.812q.625 0 1.062-.437.438-.437.438-1.063 0-.624-.438-1.062-.437-.438-1.062-.438t-1.062.448Q8.5 6.708 8.5 7.333q0 .605.438 1.042.437.437 1.062.437Zm0-1.5Zm0 6.876Z"/></svg>