<svg xmlns="http://www.w3.org/2000/svg" height="20" viewBox="0 96 960 960" width="20"><path d="m626 740 33-33-155-157.024V332h-46v240l168 168ZM480.174 940q-75.19 0-141.4-28.411-66.211-28.412-116.046-78.188-49.836-49.777-78.282-116.053Q116 651.071 116 575.716q0-75.612 28.47-142.236 28.471-66.623 78.348-116.126 49.878-49.502 116.052-77.428Q405.045 212 480.284 212q75.602 0 142.224 28.131 66.621 28.132 115.923 77.428 49.301 49.297 77.435 115.938Q844 500.139 844 575.909q0 75.467-27.891 141.337-27.892 65.871-77.335 115.808-49.443 49.936-116.118 78.441Q555.982 940 480.174 940ZM480 576Zm.477 318q132.477 0 225-93T798 575.523q0-132.477-92.523-225t-225-92.523Q348 258 255 350.523t-93 225Q162 708 255 801t225.477 93Z"/></svg>