<svg xmlns="http://www.w3.org/2000/svg" height="20" width="20"><path fill="#0284c7" d="M5.75 17.271q-.458 0-.771-.323-.312-.323-.312-.781 0-.459.312-.761.313-.302.792-.302.458 0 .76.313.302.312.302.771 0 .458-.312.77-.313.313-.771.313Zm8.479 0q-.458 0-.76-.323t-.302-.781q0-.459.312-.761.313-.302.771-.302t.771.313q.312.312.312.771 0 .458-.312.77-.313.313-.792.313ZM5.042 5.083 7 9.604h5.958q.146 0 .261-.073.114-.073.198-.198l1.604-3.791q.083-.188 0-.323-.083-.136-.271-.136Zm-.25-.666h10.416q.375 0 .532.25.156.25.031.521l-1.75 4.374q-.125.313-.396.511t-.604.198H6.604l-.979 1.687q-.125.188 0 .417.125.229.354.229h9.354v.667H6q-.688 0-.99-.552-.302-.552.032-1.094L6.25 9.562 3.458 3.083H1.833v-.666h2.105ZM7 9.604h6.271Z"/></svg>